<?xml version="1.0" encoding="UTF-8"?>
<svg version="1.1" xmlns="http://www.w3.org/2000/svg" width="1920" height="1080">
<path d="M0 0 C633.6 0 1267.2 0 1920 0 C1920 356.4 1920 712.8 1920 1080 C1286.4 1080 652.8 1080 0 1080 C0 723.6 0 367.2 0 0 Z " fill="#FEFEFE" transform="translate(0,0)"/>
<path d="M0 0 C-4.71875 3.8671875 -4.71875 3.8671875 -7.25 5.0625 C-9.35994637 5.93497944 -9.35994637 5.93497944 -10 9 C-11.6454378 10.68762851 -13.31288577 12.3540349 -15 14 C-15.66 14.99 -16.32 15.98 -17 17 C-17.66 17 -18.32 17 -19 17 C-19.185625 17.8353125 -19.185625 17.8353125 -19.375 18.6875 C-20 21 -20 21 -20.9375 23.125 C-25.87670341 36.48990334 -24.42194533 48.89321526 -19.0859375 61.83203125 C-17.79537578 64.40851238 -16.17914894 66.13215805 -14 68 C-14 68.66 -14 69.32 -14 70 C-13.34 70 -12.68 70 -12 70 C-12 70.66 -12 71.32 -12 72 C-11.360625 72.268125 -10.72125 72.53625 -10.0625 72.8125 C-8 74 -8 74 -7 77 C-5.35 77 -3.7 77 -2 77 C-2 77.66 -2 78.32 -2 79 C7.64582069 78.7059201 14.56150654 77.95604852 21.875 71.4375 C24.09593036 68.99547709 24.09593036 68.99547709 26 66 C26.66 66 27.32 66 28 66 C28 65.34 28 64.68 28 64 C28.66 64 29.32 64 30 64 C30.2165625 62.9171875 30.2165625 62.9171875 30.4375 61.8125 C30.95833333 59.20833333 31.47916667 56.60416667 32 54 C28.04 54 24.08 54 20 54 C21 51 21 51 22.63671875 49.90234375 C23.31347656 49.58394531 23.99023438 49.26554688 24.6875 48.9375 C25.41324219 48.59460938 26.13898438 48.25171875 26.88671875 47.8984375 C29 47 29 47 32 46.0625 C35.43627404 44.84548628 38.08960351 43.09437186 41.0703125 41.0234375 C43 40 43 40 47 40 C47 39.34 47 38.68 47 38 C46.39671875 37.89042969 45.7934375 37.78085937 45.171875 37.66796875 C40.59010359 36.75900442 37.69948144 35.89021988 34 33 C31.04147232 31.86210474 28.03430856 30.91418271 25 30 C25 29.01 25 28.02 25 27 C23.68 26.67 22.36 26.34 21 26 C24.96 26 28.92 26 33 26 C31.49950424 19.74793432 29.12933904 14.17946144 24 10 C21.70040008 8.59239736 19.36700416 7.29515322 17 6 C17 5.01 17 4.02 17 3 C14.36 2.34 11.72 1.68 9 1 C9 0.67 9 0.34 9 0 C14.94 0 20.88 0 27 0 C27 0.66 27 1.32 27 2 C27.88751953 1.94779297 27.88751953 1.94779297 28.79296875 1.89453125 C33.86045243 1.72093067 36.7579042 1.96993157 41 5 C43.19130534 5.69579454 43.19130534 5.69579454 45 6 C45 6.66 45 7.32 45 8 C45.56460938 8.23976563 46.12921875 8.47953125 46.7109375 8.7265625 C49.47889003 10.26641322 51.39425756 12.12933621 53.625 14.375 C54.40101563 15.14585937 55.17703125 15.91671875 55.9765625 16.7109375 C58.76015803 19.85994712 60 21.77175212 60 26 C65.61 26 71.22 26 77 26 C76.34 26.33 75.68 26.66 75 27 C75 27.66 75 28.32 75 29 C73.37750059 29.83819158 71.75191503 30.6704116 70.125 31.5 C69.22007812 31.9640625 68.31515625 32.428125 67.3828125 32.90625 C65 34 65 34 63 34 C63 34.99 63 35.98 63 37 C61.02 37.66 59.04 38.32 57 39 C57.33 39.99 57.66 40.98 58 42 C59.65 42 61.3 42 63 42 C63 42.99 63 43.98 63 45 C64.9490625 45.185625 64.9490625 45.185625 66.9375 45.375 C69.15234375 45.5859375 69.15234375 45.5859375 71 46 C71.33 46.66 71.66 47.32 72 48 C74.30965848 49.05352843 76.6429774 50.05719096 79 51 C78.67 51.99 78.34 52.98 78 54 C72.39 54 66.78 54 61 54 C60.566875 55.4025 60.13375 56.805 59.6875 58.25 C57.63998358 64.32588593 55.53427297 66.78239943 50 70 C48.9460696 70.88137252 47.90467619 71.77791012 46.875 72.6875 C44 75 44 75 41 75 C40.505 76.485 40.505 76.485 40 78 C36.99208089 80.04108797 34.57804656 80.19878036 31 80 C31 80.66 31 81.32 31 82 C14.83 82 -1.34 82 -18 82 C-18 81.34 -18 80.68 -18 80 C-20.64 80 -23.28 80 -26 80 C-26 79.34 -26 78.68 -26 78 C-28.31 78 -30.62 78 -33 78 C-33 77.34 -33 76.68 -33 76 C-34.32 76 -35.64 76 -37 76 C-37 75.34 -37 74.68 -37 74 C-38.051875 73.7215625 -38.051875 73.7215625 -39.125 73.4375 C-43.04135028 71.47932486 -45.5338864 68.59323769 -48 65 C-48 64.34 -48 63.68 -48 63 C-48.66 63 -49.32 63 -50 63 C-50 62.01 -50 61.02 -50 60 C-50.66 60 -51.32 60 -52 60 C-52 57.69 -52 55.38 -52 53 C-52.99 53 -53.98 53 -55 53 C-55 44.09 -55 35.18 -55 26 C-54.01 25.67 -53.02 25.34 -52 25 C-52 23.68 -52 22.36 -52 21 C-51.34 21 -50.68 21 -50 21 C-49.83564453 20.11828125 -49.83564453 20.11828125 -49.66796875 19.21875 C-47.87664993 13.26863836 -42.20839003 8.91669842 -37 6 C-34.3575473 4.91479383 -31.69278765 3.95844984 -29 3 C-28.67 2.67 -28.34 2.34 -28 2 C-18.98955637 -0.91827607 -9.33582352 -0.18305536 0 0 Z " fill="#CCCACB" transform="translate(805,497)"/>
<path d="M0 0 C1.61230751 0.00424484 1.61230751 0.00424484 3.25718689 0.00857544 C6.65985677 0.01968976 10.06225464 0.04477803 13.46484375 0.0703125 C15.78450138 0.08035361 18.10416318 0.08947747 20.42382812 0.09765625 C26.08342472 0.11960038 31.74286479 0.15298985 37.40234375 0.1953125 C37.40234375 0.8553125 37.40234375 1.5153125 37.40234375 2.1953125 C39.19671875 2.0715625 39.19671875 2.0715625 41.02734375 1.9453125 C45.65169012 1.912399 47.84467193 3.34917504 51.40234375 6.1953125 C48.40234375 6.1953125 48.40234375 6.1953125 46.51171875 5.234375 C44.14322919 4.06767459 42.27168888 3.80143119 39.65234375 3.5703125 C38.45351563 3.45816406 38.45351563 3.45816406 37.23046875 3.34375 C36.32554687 3.27027344 36.32554687 3.27027344 35.40234375 3.1953125 C35.40234375 2.5353125 35.40234375 1.8753125 35.40234375 1.1953125 C28.96734375 1.6903125 28.96734375 1.6903125 22.40234375 2.1953125 C23.39234375 2.8553125 24.38234375 3.5153125 25.40234375 4.1953125 C25.40234375 5.1853125 25.40234375 6.1753125 25.40234375 7.1953125 C25.95921875 7.4634375 26.51609375 7.7315625 27.08984375 8.0078125 C33.38436264 11.24013301 38.28329501 14.64531015 41.40234375 21.1953125 C41.58984375 24.5078125 41.58984375 24.5078125 41.40234375 27.1953125 C37.44234375 27.6903125 37.44234375 27.6903125 33.40234375 28.1953125 C33.40234375 29.1853125 33.40234375 30.1753125 33.40234375 31.1953125 C34.30726563 31.35966797 34.30726563 31.35966797 35.23046875 31.52734375 C39.81224016 32.43630808 42.70286231 33.30509262 46.40234375 36.1953125 C49.36087143 37.33320776 52.36803519 38.28112979 55.40234375 39.1953125 C55.40234375 39.8553125 55.40234375 40.5153125 55.40234375 41.1953125 C54.18546875 41.6078125 52.96859375 42.0203125 51.71484375 42.4453125 C48.9420713 43.47298341 47.2871808 44.28980518 44.96484375 46.1953125 C41.96003223 48.54053124 39.20721719 49.41744684 35.5859375 50.484375 C33.36788643 51.20653116 31.4185521 52.02176453 29.40234375 53.1953125 C28.90734375 54.1853125 28.90734375 54.1853125 28.40234375 55.1953125 C32.36234375 55.1953125 36.32234375 55.1953125 40.40234375 55.1953125 C40.40234375 59.59816673 40.13968522 61.39487804 38.40234375 65.1953125 C37.74234375 65.1953125 37.08234375 65.1953125 36.40234375 65.1953125 C36.40234375 65.8553125 36.40234375 66.5153125 36.40234375 67.1953125 C35.74234375 67.1953125 35.08234375 67.1953125 34.40234375 67.1953125 C33.74234375 68.5153125 33.08234375 69.8353125 32.40234375 71.1953125 C31.74234375 71.1953125 31.08234375 71.1953125 30.40234375 71.1953125 C30.15484375 71.7934375 29.90734375 72.3915625 29.65234375 73.0078125 C27.30992092 77.10705245 23.77170475 78.75109794 19.40234375 80.1953125 C16.0703125 80.390625 16.0703125 80.390625 12.58984375 80.3203125 C11.42839844 80.30226563 10.26695312 80.28421875 9.0703125 80.265625 C8.18988281 80.24242187 7.30945313 80.21921875 6.40234375 80.1953125 C6.40234375 79.5353125 6.40234375 78.8753125 6.40234375 78.1953125 C5.68046875 78.2984375 4.95859375 78.4015625 4.21484375 78.5078125 C0.24497345 78.0667158 -1.10168693 76.19047568 -3.59765625 73.1953125 C-3.59765625 72.5353125 -3.59765625 71.8753125 -3.59765625 71.1953125 C-4.25765625 71.1953125 -4.91765625 71.1953125 -5.59765625 71.1953125 C-5.68015625 70.5765625 -5.76265625 69.9578125 -5.84765625 69.3203125 C-6.09515625 68.6190625 -6.34265625 67.9178125 -6.59765625 67.1953125 C-7.54511719 66.77572266 -7.54511719 66.77572266 -8.51171875 66.34765625 C-12.97457449 63.88222096 -13.91704996 57.48949101 -15.29296875 52.8515625 C-18.31428877 40.7662824 -15.91274542 29.33168981 -10.59765625 18.1953125 C-9.93765625 18.1953125 -9.27765625 18.1953125 -8.59765625 18.1953125 C-8.32953125 17.6178125 -8.06140625 17.0403125 -7.78515625 16.4453125 C-6.56836436 14.13981207 -5.29431746 12.17475058 -3.59765625 10.1953125 C-2.93765625 10.1953125 -2.27765625 10.1953125 -1.59765625 10.1953125 C-1.57703125 9.6178125 -1.55640625 9.0403125 -1.53515625 8.4453125 C-0.02103075 4.81141129 2.9619055 3.94680834 6.40234375 2.1953125 C-9.76073857 1.59563685 -9.76073857 1.59563685 -24.59765625 7.1953125 C-26.91015625 6.8828125 -26.91015625 6.8828125 -28.59765625 6.1953125 C-27.93765625 6.1953125 -27.27765625 6.1953125 -26.59765625 6.1953125 C-26.59765625 5.5353125 -26.59765625 4.8753125 -26.59765625 4.1953125 C-17.62702634 0.97508638 -9.5064943 -0.09570406 0 0 Z " fill="#FBFBFB" transform="translate(796.59765625,495.8046875)"/>
<path d="M0 0 C28.125 0 28.125 0 35.4375 6 C36.2109375 6.99 36.2109375 6.99 37 8 C37.53625 8.66 38.0725 9.32 38.625 10 C42.06559286 15.0044987 42.3652135 18.76066461 42.375 24.75 C42.39949219 25.5234375 42.42398438 26.296875 42.44921875 27.09375 C42.48292399 33.78985725 40.62956477 38.81321793 36.359375 43.98828125 C35.82828125 44.42527344 35.2971875 44.86226562 34.75 45.3125 C34.22921875 45.76238281 33.7084375 46.21226562 33.171875 46.67578125 C21.9058404 53.54482033 14.47378715 51 0 51 C0 34.17 0 17.34 0 0 Z " fill="#324A97" transform="translate(949,503)"/>
<path d="M0 0 C4.95 0 9.9 0 15 0 C26 32.72191011 26 32.72191011 26 37 C26.66 37 27.32 37 28 37 C28.23589844 35.80375 28.47179688 34.6075 28.71484375 33.375 C30.18449467 26.7661028 32.39814775 20.4075768 34.5625 14 C34.97435547 12.76121094 35.38621094 11.52242187 35.81054688 10.24609375 C38.86637464 1.13362536 38.86637464 1.13362536 40 0 C44.62 0 49.24 0 54 0 C54 16.83 54 33.66 54 51 C50.7 51 47.4 51 44 51 C43.67 39.78 43.34 28.56 43 17 C41.55625 21.310625 40.1125 25.62125 38.625 30.0625 C38.17334473 31.40836182 37.72168945 32.75422363 37.25634766 34.14086914 C36.89589355 35.21973389 36.53543945 36.29859863 36.1640625 37.41015625 C35.79748535 38.50465088 35.4309082 39.59914551 35.05322266 40.72680664 C33.95686192 44.13406403 32.96506615 47.55360765 32 51 C28.37 51 24.74 51 21 51 C17.66666667 39.66666667 14.33333333 28.33333333 11 17 C10.67 28.22 10.34 39.44 10 51 C6.7 51 3.4 51 0 51 C0 34.17 0 17.34 0 0 Z " fill="#344C98" transform="translate(1051,503)"/>
<path d="M0 0 C3.35286458 0.03255208 6.70572917 0.06510417 10.05859375 0.09765625 C14.16186303 9.47689251 17.61702171 19.04088413 20.98999023 28.70117188 C21.88218492 31.25439624 22.78157845 33.80500855 23.68164062 36.35546875 C24.2517265 37.98031991 24.82140356 39.60531456 25.390625 41.23046875 C25.79363579 42.37251266 25.79363579 42.37251266 26.20478821 43.53762817 C28.05859375 48.86737168 28.05859375 48.86737168 28.05859375 51.09765625 C24.09859375 51.09765625 20.13859375 51.09765625 16.05859375 51.09765625 C15.06859375 47.13765625 14.07859375 43.17765625 13.05859375 39.09765625 C6.78859375 39.09765625 0.51859375 39.09765625 -5.94140625 39.09765625 C-6.93140625 43.05765625 -7.92140625 47.01765625 -8.94140625 51.09765625 C-12.90140625 51.09765625 -16.86140625 51.09765625 -20.94140625 51.09765625 C-18.99220328 44.47058705 -16.90668914 37.92422641 -14.62109375 31.40625 C-14.31696564 30.53492935 -14.01283752 29.6636087 -13.69949341 28.7658844 C-13.06363339 26.94631679 -12.42665011 25.12714135 -11.78857422 23.30834961 C-10.80836597 20.51222066 -9.83369709 17.71420031 -8.859375 14.91601562 C-8.23861194 13.14181135 -7.61752998 11.36771861 -6.99609375 9.59375 C-6.70443329 8.75533066 -6.41277283 7.91691132 -6.11227417 7.05308533 C-3.67225355 0.12192077 -3.67225355 0.12192077 0 0 Z " fill="#314996" transform="translate(914.94140625,502.90234375)"/>
<path d="M0 0 C4.62 0 9.24 0 14 0 C16.64555317 6.51577882 19.14090875 13.0507763 21.453125 19.69140625 C21.91075226 20.99838722 21.91075226 20.99838722 22.37762451 22.33177185 C23.01389143 24.15057474 23.64907578 25.96975668 24.28320312 27.78930664 C25.25881186 30.58777623 26.23854259 33.38477889 27.21875 36.18164062 C27.83878328 37.95564474 28.45858365 39.72973028 29.078125 41.50390625 C29.51865204 42.76153526 29.51865204 42.76153526 29.96807861 44.04457092 C32 49.88452728 32 49.88452728 32 51 C28.04 51 24.08 51 20 51 C17 43.5 17 43.5 17 39 C10.73 39.33 4.46 39.66 -2 40 C-2.99 43.63 -3.98 47.26 -5 51 C-8.96 51 -12.92 51 -17 51 C-16.29899076 47.4949538 -15.57996907 44.53172263 -14.41772461 41.2097168 C-14.09746811 40.28913986 -13.77721161 39.36856293 -13.44725037 38.42008972 C-12.93002159 36.94950859 -12.93002159 36.94950859 -12.40234375 35.44921875 C-12.04862198 34.43527542 -11.69490021 33.42133209 -11.33045959 32.37666321 C-10.20256907 29.1458505 -9.0700979 25.91666511 -7.9375 22.6875 C-7.17092122 20.49424641 -6.40464165 18.30088822 -5.63867188 16.10742188 C-3.76258149 10.7370623 -1.88238197 5.36815736 0 0 Z " fill="#314996" transform="translate(1013,503)"/>
<path d="M0 0 C25.56097561 0 25.56097561 0 31.9375 5.5625 C35.96192044 10.31863324 35.46878154 14.97402644 35 21 C33.35818299 25.7526282 31.20110604 28.26439607 27 31 C21.68319405 33.472933 16.75482461 33.1555358 11 33 C11 38.94 11 44.88 11 51 C7.37 51 3.74 51 0 51 C0 34.17 0 17.34 0 0 Z " fill="#304996" transform="translate(1118,503)"/>
<path d="M0 0 C-4.71875 3.8671875 -4.71875 3.8671875 -7.25 5.0625 C-9.35994637 5.93497944 -9.35994637 5.93497944 -10 9 C-11.6454378 10.68762851 -13.31288577 12.3540349 -15 14 C-15.66 14.99 -16.32 15.98 -17 17 C-17.66 17 -18.32 17 -19 17 C-19.144375 17.598125 -19.28875 18.19625 -19.4375 18.8125 C-19.8872439 20.56150404 -20.42892341 22.28677023 -21 24 C-21.99 24.495 -21.99 24.495 -23 25 C-25.37165081 30.44084597 -25.37439376 34.7439376 -26 41 C-35.24 41 -44.48 41 -54 41 C-54 27 -54 27 -52 21 C-51.34 21 -50.68 21 -50 21 C-49.83564453 20.11828125 -49.83564453 20.11828125 -49.66796875 19.21875 C-47.87664993 13.26863836 -42.20839003 8.91669842 -37 6 C-34.3575473 4.91479383 -31.69278765 3.95844984 -29 3 C-28.67 2.67 -28.34 2.34 -28 2 C-18.98955637 -0.91827607 -9.33582352 -0.18305536 0 0 Z " fill="#334A93" transform="translate(805,497)"/>
<path d="M0 0 C5.94 0 11.88 0 18 0 C18 0.66 18 1.32 18 2 C18.59167969 1.96519531 19.18335938 1.93039062 19.79296875 1.89453125 C24.86045243 1.72093067 27.7579042 1.96993157 32 5 C34.19130534 5.69579454 34.19130534 5.69579454 36 6 C36 6.66 36 7.32 36 8 C36.56460938 8.23976563 37.12921875 8.47953125 37.7109375 8.7265625 C40.47889003 10.26641322 42.39425756 12.12933621 44.625 14.375 C45.40101563 15.14585937 46.17703125 15.91671875 46.9765625 16.7109375 C49.76015803 19.85994712 51 21.77175212 51 26 C56.61 26 62.22 26 68 26 C67.34 26.33 66.68 26.66 66 27 C66 27.66 66 28.32 66 29 C58.8971368 32.71367975 58.8971368 32.71367975 55.0625 33.9375 C51.44958958 35.19095872 48.46900873 37.03476275 45.24609375 39.07421875 C41.03341515 40.81057497 37.26256993 38.83317819 33.25 37.1875 C32.38761719 36.83429687 31.52523437 36.48109375 30.63671875 36.1171875 C27.37333424 34.7344794 24.13544678 33.30126523 20.91015625 31.83203125 C18.84623344 30.89933785 18.84623344 30.89933785 16 30 C16 29.01 16 28.02 16 27 C14.68 26.67 13.36 26.34 12 26 C15.96 26 19.92 26 24 26 C22.49950424 19.74793432 20.12933904 14.17946144 15 10 C12.70040008 8.59239736 10.36700416 7.29515322 8 6 C8 5.01 8 4.02 8 3 C5.36 2.34 2.72 1.68 0 1 C0 0.67 0 0.34 0 0 Z " fill="#354B94" transform="translate(814,497)"/>
<path d="M0 0 C12.67567568 0 12.67567568 0 17 4 C20.09230687 8.13790703 20.43234792 11.32147998 20.4375 16.4375 C20.46650391 18.35369141 20.46650391 18.35369141 20.49609375 20.30859375 C19.81345081 25.38810225 17.69003048 28.46360866 13.9375 31.875 C11 33 11 33 0 33 C0 22.11 0 11.22 0 0 Z " fill="#FAFBFC" transform="translate(960,512)"/>
<path d="M0 0 C3.63 0 7.26 0 11 0 C11 16.83 11 33.66 11 51 C7.37 51 3.74 51 0 51 C0 34.17 0 17.34 0 0 Z " fill="#334B97" transform="translate(1163,503)"/>
<path d="M0 0 C0.94552734 0.16242188 0.94552734 0.16242188 1.91015625 0.328125 C4.36346627 4.00809003 4.30523518 5.98225672 3.91015625 10.328125 C2.92015625 10.988125 1.93015625 11.648125 0.91015625 12.328125 C1.24015625 12.658125 1.57015625 12.988125 1.91015625 13.328125 C1.95096408 15.32770864 1.95269981 17.32857754 1.91015625 19.328125 C3.20953125 19.3075 4.50890625 19.286875 5.84765625 19.265625 C7.20181258 19.24413046 8.55771708 19.25664301 9.91015625 19.328125 C10.91015625 20.328125 10.91015625 20.328125 11.03515625 23.328125 C10.91015625 26.328125 10.91015625 26.328125 9.91015625 27.328125 C8.24586574 27.42636437 6.57733694 27.45786131 4.91015625 27.453125 C3.54890625 27.45699219 3.54890625 27.45699219 2.16015625 27.4609375 C-0.08984375 27.328125 -0.08984375 27.328125 -1.08984375 26.328125 C-1.16189886 24.64203534 -1.17370443 22.95311841 -1.15234375 21.265625 C-1.14332031 20.34652344 -1.13429688 19.42742188 -1.125 18.48046875 C-1.11339844 17.77019531 -1.10179687 17.05992187 -1.08984375 16.328125 C-2.40984375 16.328125 -3.72984375 16.328125 -5.08984375 16.328125 C-5.08984375 21.608125 -5.08984375 26.888125 -5.08984375 32.328125 C-5.74984375 32.328125 -6.40984375 32.328125 -7.08984375 32.328125 C-7.08984375 30.348125 -7.08984375 28.368125 -7.08984375 26.328125 C-9.06984375 26.328125 -11.04984375 26.328125 -13.08984375 26.328125 C-13.08984375 24.348125 -13.08984375 22.368125 -13.08984375 20.328125 C-11.10984375 20.328125 -9.12984375 20.328125 -7.08984375 20.328125 C-7.08984375 16.698125 -7.08984375 13.068125 -7.08984375 9.328125 C-6.42984375 9.328125 -5.76984375 9.328125 -5.08984375 9.328125 C-4.75984375 8.338125 -4.42984375 7.348125 -4.08984375 6.328125 C-3.75984375 6.988125 -3.42984375 7.648125 -3.08984375 8.328125 C-1.76984375 8.328125 -0.44984375 8.328125 0.91015625 8.328125 C0.58015625 7.008125 0.25015625 5.688125 -0.08984375 4.328125 C-1.40984375 3.998125 -2.72984375 3.668125 -4.08984375 3.328125 C-4.08984375 3.988125 -4.08984375 4.648125 -4.08984375 5.328125 C-5.40984375 5.328125 -6.72984375 5.328125 -8.08984375 5.328125 C-6.84981688 -0.16342256 -5.67512942 0.20599381 0 0 Z " fill="#EAEAEA" transform="translate(810.08984375,506.671875)"/>
<path d="M0 0 C1.73830078 0.00386719 1.73830078 0.00386719 3.51171875 0.0078125 C4.66285156 0.00523437 5.81398438 0.00265625 7 0 C10.19921875 0.1328125 10.19921875 0.1328125 14.19921875 1.1328125 C14.19921875 7.7328125 14.19921875 14.3328125 14.19921875 21.1328125 C8.19921875 21.1328125 8.19921875 21.1328125 6.19921875 20.1328125 C6.19921875 17.8228125 6.19921875 15.5128125 6.19921875 13.1328125 C8.17921875 13.1328125 10.15921875 13.1328125 12.19921875 13.1328125 C12.19921875 9.5028125 12.19921875 5.8728125 12.19921875 2.1328125 C9.55921875 2.4628125 6.91921875 2.7928125 4.19921875 3.1328125 C4.19921875 5.7728125 4.19921875 8.4128125 4.19921875 11.1328125 C1.55921875 11.1328125 -1.08078125 11.1328125 -3.80078125 11.1328125 C-3.82766276 9.48706684 -3.84712248 7.84119837 -3.86328125 6.1953125 C-3.87488281 5.27878906 -3.88648438 4.36226562 -3.8984375 3.41796875 C-3.75358242 0.02835997 -3.42829796 0.16256922 0 0 Z " fill="#D5D5D5" transform="translate(803.80078125,545.8671875)"/>
<path d="M0 0 C8.08587944 -0.35672998 8.08587944 -0.35672998 11.5625 1 C13.44027271 3.61255333 13.5637895 5.88787271 13.37109375 9.05859375 C13 11 13 11 11.5625 13.5 C7.66194794 15.78324998 4.47500399 15.26323553 0 15 C0 10.05 0 5.1 0 0 Z " fill="#FAFAFC" transform="translate(1129,512)"/>
<path d="M0 0 C1.32 0 2.64 0 4 0 C4.04898438 0.71027344 4.09796875 1.42054688 4.1484375 2.15234375 C4.22320313 3.07144531 4.29796875 3.99054687 4.375 4.9375 C4.44460938 5.85402344 4.51421875 6.77054688 4.5859375 7.71484375 C4.72257813 8.46894531 4.85921875 9.22304688 5 10 C5.66 10.33 6.32 10.66 7 11 C7.4140625 13.50390625 7.4140625 13.50390625 7.625 16.5625 C7.69976563 17.57441406 7.77453125 18.58632813 7.8515625 19.62890625 C7.92503906 20.80259766 7.92503906 20.80259766 8 22 C9.65 22.33 11.3 22.66 13 23 C9.58860997 24.09651823 6.79344419 23.94215473 3.25 23.5625 C2.26515625 23.46066406 1.2803125 23.35882812 0.265625 23.25390625 C-0.48203125 23.17011719 -1.2296875 23.08632813 -2 23 C-2 20.69 -2 18.38 -2 16 C-1.34 16 -0.68 16 0 16 C0 10.72 0 5.44 0 0 Z " fill="#EBEBEB" transform="translate(805,523)"/>
<path d="M0 0 C2.33722838 3.50584257 3.41233172 7.07550049 4.625 11.0625 C4.85445312 11.79533203 5.08390625 12.52816406 5.3203125 13.28320312 C7 18.72719029 7 18.72719029 7 21 C2.71 21 -1.58 21 -6 21 C-2.57894737 2.57894737 -2.57894737 2.57894737 0 0 Z " fill="#F0F2F7" transform="translate(1020,512)"/>
<path d="M0 0 C2.82227644 2.82227644 3.49645494 6.20739613 4.625 9.9375 C4.85445312 10.66646484 5.08390625 11.39542969 5.3203125 12.14648438 C6.25868208 15.19339276 7 17.79398214 7 21 C2.71 21 -1.58 21 -6 21 C-4.27806003 13.8662487 -2.42393534 6.92552955 0 0 Z " fill="#F0F2F7" transform="translate(918,512)"/>
<path d="M0 0 C1.61230751 0.00424484 1.61230751 0.00424484 3.25718689 0.00857544 C6.65985677 0.01968976 10.06225464 0.04477803 13.46484375 0.0703125 C15.78450138 0.08035361 18.10416318 0.08947747 20.42382812 0.09765625 C26.08342472 0.11960038 31.74286479 0.15298985 37.40234375 0.1953125 C37.40234375 0.8553125 37.40234375 1.5153125 37.40234375 2.1953125 C39.19671875 2.0715625 39.19671875 2.0715625 41.02734375 1.9453125 C45.65169012 1.912399 47.84467193 3.34917504 51.40234375 6.1953125 C48.40234375 6.1953125 48.40234375 6.1953125 46.51171875 5.234375 C44.14322919 4.06767459 42.27168888 3.80143119 39.65234375 3.5703125 C38.45351563 3.45816406 38.45351563 3.45816406 37.23046875 3.34375 C36.32554687 3.27027344 36.32554687 3.27027344 35.40234375 3.1953125 C35.40234375 2.5353125 35.40234375 1.8753125 35.40234375 1.1953125 C28.96734375 1.6903125 28.96734375 1.6903125 22.40234375 2.1953125 C23.39234375 3.1853125 24.38234375 4.1753125 25.40234375 5.1953125 C24.63921875 5.0303125 23.87609375 4.8653125 23.08984375 4.6953125 C16.47799973 3.79879128 9.92622372 3.70885884 3.40234375 5.1953125 C4.39234375 4.2053125 5.38234375 3.2153125 6.40234375 2.1953125 C-9.76073857 1.59563685 -9.76073857 1.59563685 -24.59765625 7.1953125 C-26.91015625 6.8828125 -26.91015625 6.8828125 -28.59765625 6.1953125 C-27.93765625 6.1953125 -27.27765625 6.1953125 -26.59765625 6.1953125 C-26.59765625 5.5353125 -26.59765625 4.8753125 -26.59765625 4.1953125 C-17.62702634 0.97508638 -9.5064943 -0.09570406 0 0 Z " fill="#A1A8BD" transform="translate(796.59765625,495.8046875)"/>
<path d="M0 0 C0 0.99 0 1.98 0 3 C-3.3 4.32 -6.6 5.64 -10 7 C-9.34 7.33 -8.68 7.66 -8 8 C-7.94552953 9.41623216 -7.90699492 10.83308191 -7.875 12.25 C-7.85179687 13.03890625 -7.82859375 13.8278125 -7.8046875 14.640625 C-8.0171622 17.20731941 -8.71345895 18.7916067 -10 21 C-10.66 21 -11.32 21 -12 21 C-11.67 17.7 -11.34 14.4 -11 11 C-14.96 11 -18.92 11 -23 11 C-22 8 -22 8 -20.36328125 6.90234375 C-19.68652344 6.58394531 -19.00976562 6.26554688 -18.3125 5.9375 C-17.59320312 5.59847656 -16.87390625 5.25945313 -16.1328125 4.91015625 C-13.47234686 3.77482934 -10.74916471 2.89507688 -8 2 C-4.77208445 -0.1519437 -3.71599191 -0.20086443 0 0 Z " fill="#C2C1C2" transform="translate(848,540)"/>
<path d="M0 0 C0.66 0 1.32 0 2 0 C2.99 0 3.98 0 5 0 C5 3.63 5 7.26 5 11 C3.411875 11.061875 1.82375 11.12375 0.1875 11.1875 C-0.70582031 11.22230469 -1.59914063 11.25710938 -2.51953125 11.29296875 C-5 11 -5 11 -6.80078125 9.64453125 C-8.50731102 7.30430639 -8.42408618 5.8272412 -8 3 C-5.81332627 -0.33755465 -3.80399916 -0.29261532 0 0 Z " fill="#F6F6F6" transform="translate(959,562)"/>
<path d="M0 0 C0.66 0 1.32 0 2 0 C2.99 0 3.98 0 5 0 C5 3.63 5 7.26 5 11 C3.411875 11.061875 1.82375 11.12375 0.1875 11.1875 C-0.70582031 11.22230469 -1.59914063 11.25710938 -2.51953125 11.29296875 C-5 11 -5 11 -6.80078125 9.64453125 C-8.50731102 7.30430639 -8.42408618 5.8272412 -8 3 C-5.81332627 -0.33755465 -3.80399916 -0.29261532 0 0 Z " fill="#F6F6F6" transform="translate(934,562)"/>
<path d="M0 0 C0 0.66 0 1.32 0 2 C0.63808594 2.04898438 1.27617188 2.09796875 1.93359375 2.1484375 C2.75988281 2.22320313 3.58617187 2.29796875 4.4375 2.375 C5.26121094 2.44460938 6.08492187 2.51421875 6.93359375 2.5859375 C7.95646484 2.79089844 7.95646484 2.79089844 9 3 C9.495 3.99 9.495 3.99 10 5 C-3.5688491 6.22163272 -17.47305374 7.00399204 -31 5 C-31 4.67 -31 4.34 -31 4 C-29.35 4 -27.7 4 -26 4 C-26 3.34 -26 2.68 -26 2 C-24.75863281 2.02320313 -23.51726563 2.04640625 -22.23828125 2.0703125 C-20.5963602 2.08907731 -18.95443262 2.10727675 -17.3125 2.125 C-16.49587891 2.14175781 -15.67925781 2.15851562 -14.83789062 2.17578125 C-9.50977161 2.21892391 -5.05682942 0 0 0 Z " fill="#C0BFC0" transform="translate(824,573)"/>
<path d="M0 0 C0.99 0.33 1.98 0.66 3 1 C2.67 1.66 2.34 2.32 2 3 C2.99 3.66 3.98 4.32 5 5 C5.3125 8.5 5.3125 8.5 5 12 C3 14 3 14 0 14.25 C-3 14 -3 14 -5 12 C-5.125 8.375 -5.125 8.375 -5 5 C-4.360625 4.731875 -3.72125 4.46375 -3.0625 4.1875 C-0.66868314 3.11332248 -0.66868314 3.11332248 0 0 Z " fill="#0E0E0E" transform="translate(971,559)"/>
<path d="M0 0 C0.66 0 1.32 0 2 0 C2 1.65 2 3.3 2 5 C2.95712891 4.98259766 2.95712891 4.98259766 3.93359375 4.96484375 C5.17302734 4.95130859 5.17302734 4.95130859 6.4375 4.9375 C7.26121094 4.92589844 8.08492187 4.91429687 8.93359375 4.90234375 C11 5 11 5 12 6 C12.125 9 12.125 9 12 12 C11 13 11 13 8.75 13.1328125 C7.8425 13.13023437 6.935 13.12765625 6 13.125 C4.63875 13.12886719 4.63875 13.12886719 3.25 13.1328125 C1 13 1 13 0 12 C-0.07244053 9.98035801 -0.08377188 7.95832876 -0.0625 5.9375 C-0.05347656 4.83277344 -0.04445313 3.72804688 -0.03515625 2.58984375 C-0.02355469 1.73519531 -0.01195312 0.88054688 0 0 Z " fill="#C8C8C8" transform="translate(809,521)"/>
<path d="M0 0 C0.99 0.33 1.98 0.66 3 1 C2.34 1 1.68 1 1 1 C1 1.99 1 2.98 1 4 C-0.98 4.66 -2.96 5.32 -5 6 C-4.67 6.99 -4.34 7.98 -4 9 C-2.35 9 -0.7 9 1 9 C1 9.99 1 10.98 1 12 C1.8971875 12.1546875 1.8971875 12.1546875 2.8125 12.3125 C5.28243264 13.08876455 6.32251235 14.07088921 8 16 C6.375 16.75 6.375 16.75 4 17 C1.96166576 15.7260411 -0.03852126 14.38938077 -2 13 C-4.22602615 12.23060319 -4.22602615 12.23060319 -6 12 C-6 11.34 -6 10.68 -6 10 C-7.32 10 -8.64 10 -10 10 C-10 9.34 -10 8.68 -10 8 C-11.32 8 -12.64 8 -14 8 C-14 8.66 -14 9.32 -14 10 C-15.32 10 -16.64 10 -18 10 C-18 9.34 -18 8.68 -18 8 C-17.01 8 -16.02 8 -15 8 C-14.67 7.34 -14.34 6.68 -14 6 C-13.319375 5.87625 -12.63875 5.7525 -11.9375 5.625 C-7.89461119 4.76481089 -2.98964506 2.98964506 0 0 Z " fill="#C4C3C4" transform="translate(867,530)"/>
<path d="M0 0 C0 3.63 0 7.26 0 11 C-1.98 11 -3.96 11 -6 11 C-6 13.31 -6 15.62 -6 18 C-3.36 18.33 -0.72 18.66 2 19 C1.67 19.66 1.34 20.32 1 21 C-1.875 21.125 -1.875 21.125 -5 21 C-7 19 -7 19 -7.22705078 17.12060547 C-7.21657715 16.37697754 -7.20610352 15.63334961 -7.1953125 14.8671875 C-7.18886719 14.06152344 -7.18242188 13.25585938 -7.17578125 12.42578125 C-7.15064453 11.16314453 -7.15064453 11.16314453 -7.125 9.875 C-7.11597656 9.02550781 -7.10695313 8.17601562 -7.09765625 7.30078125 C-7.07405647 5.20040116 -7.03818483 3.10016556 -7 1 C-4.50935112 0.31292445 -2.62113708 0 0 0 Z " fill="#F1F1F1" transform="translate(816,548)"/>
<path d="M0 0 C2.97 0 5.94 0 9 0 C9 1.98 9 3.96 9 6 C8.67 6 8.34 6 8 6 C8 4.35 8 2.7 8 1 C7.34 1 6.68 1 6 1 C6 1.66 6 2.32 6 3 C4.68 3 3.36 3 2 3 C2 8.28 2 13.56 2 19 C1.34 19 0.68 19 0 19 C0 17.02 0 15.04 0 13 C-1.98 13 -3.96 13 -6 13 C-6 11.02 -6 9.04 -6 7 C-4.02 7 -2.04 7 0 7 C0 4.69 0 2.38 0 0 Z " fill="#E1E1E1" transform="translate(803,520)"/>
<path d="M0 0 C2 2 2 2 2.25 5.5 C2 9 2 9 0 11 C-2.84602594 11.36487512 -4.3864306 11.40199375 -6.8125 9.8125 C-8.42525784 7.35092224 -8.4334014 5.88934264 -8 3 C-5.84871852 -0.2835349 -3.77529378 -0.48401202 0 0 Z " fill="#151515" transform="translate(1101,562)"/>
<path d="M0 0 C2 2 2 2 2.25 5.5 C2 9 2 9 0 11 C-2.84602594 11.36487512 -4.3864306 11.40199375 -6.8125 9.8125 C-8.42525784 7.35092224 -8.4334014 5.88934264 -8 3 C-5.84871852 -0.2835349 -3.77529378 -0.48401202 0 0 Z " fill="#151515" transform="translate(922,562)"/>
<path d="M0 0 C1.32 0 2.64 0 4 0 C4.33 1.98 4.66 3.96 5 6 C5.66 6 6.32 6 7 6 C7.66 4.02 8.32 2.04 9 0 C9.99 0 10.98 0 12 0 C12 3.63 12 7.26 12 11 C11.34 11 10.68 11 10 11 C9.67 9.35 9.34 7.7 9 6 C8.34 7.65 7.68 9.3 7 11 C6.34 11 5.68 11 5 11 C4.34 9.35 3.68 7.7 3 6 C2.67 7.65 2.34 9.3 2 11 C1.34 11 0.68 11 0 11 C0 7.37 0 3.74 0 0 Z " fill="#1E1E1E" transform="translate(1028,562)"/>
<path d="M0 0 C6.875 0.875 6.875 0.875 8 2 C8.1875 5.4375 8.1875 5.4375 8 9 C6 11 6 11 2.875 11.125 C1.451875 11.063125 1.451875 11.063125 0 11 C0 7.37 0 3.74 0 0 Z " fill="#0C0C0C" transform="translate(1083,562)"/>
<path d="M0 0 C6.875 0.875 6.875 0.875 8 2 C8.1875 5.4375 8.1875 5.4375 8 9 C6 11 6 11 2.875 11.125 C1.451875 11.063125 1.451875 11.063125 0 11 C0 7.37 0 3.74 0 0 Z " fill="#0C0C0C" transform="translate(995,562)"/>
<path d="M0 0 C0.66 0 1.32 0 2 0 C1.49273837 4.28128816 -1.0194344 6.55423235 -3.875 9.625 C-5.20144531 11.06746094 -5.20144531 11.06746094 -6.5546875 12.5390625 C-9 15 -9 15 -12 17 C-12.99 17 -13.98 17 -15 17 C-15 17.66 -15 18.32 -15 19 C-16.32 19 -17.64 19 -19 19 C-19 18.01 -19 17.02 -19 16 C-12.46153846 12.15384615 -12.46153846 12.15384615 -9.1875 11.0625 C-6.77103097 10.16693807 -6.77103097 10.16693807 -5.8125 7.5625 C-5.544375 6.716875 -5.27625 5.87125 -5 5 C-4.34 4.01 -3.68 3.02 -3 2 C-2.01 2 -1.02 2 0 2 C0 1.34 0 0.68 0 0 Z " fill="#BDBBBC" transform="translate(861,555)"/>
<path d="M0 0 C-0.33 0.99 -0.66 1.98 -1 3 C-6.61 3 -12.22 3 -18 3 C-18.33 3.99 -18.66 4.98 -19 6 C-19.66 6 -20.32 6 -21 6 C-21 4.68 -21 3.36 -21 2 C-20.34 2 -19.68 2 -19 2 C-19 1.34 -19 0.68 -19 0 C-12.41816638 -0.8931507 -6.57849492 -0.95494281 0 0 Z " fill="#B9B7B8" transform="translate(884,548)"/>
<path d="M0 0 C9.24 0 18.48 0 28 0 C28 1.65 28 3.3 28 5 C27.01 5.495 27.01 5.495 26 6 C25.67 4.35 25.34 2.7 25 1 C17.74 1 10.48 1 3 1 C3 3.97 3 6.94 3 10 C2.01 10 1.02 10 0 10 C0 6.7 0 3.4 0 0 Z " fill="#B8B6B9" transform="translate(751,538)"/>
<path d="M0 0 C1.98 0.66 3.96 1.32 6 2 C6 2.66 6 3.32 6 4 C6.639375 4.268125 7.27875 4.53625 7.9375 4.8125 C10 6 10 6 11 9 C12.65 9 14.3 9 16 9 C15.67 9.66 15.34 10.32 15 11 C13.68 10.67 12.36 10.34 11 10 C11 10.66 11 11.32 11 12 C6.545 12.495 6.545 12.495 2 13 C2.33 12.34 2.66 11.68 3 11 C5.0625 10.375 5.0625 10.375 7 10 C7 9.34 7 8.68 7 8 C6.360625 7.731875 5.72125 7.46375 5.0625 7.1875 C3 6 3 6 2 3 C1.34 3 0.68 3 0 3 C0 2.01 0 1.02 0 0 Z " fill="#C4C3C4" transform="translate(787,565)"/>
<path d="M0 0 C4 1 4 1 5.75 3.5625 C6.1625 4.366875 6.575 5.17125 7 6 C7.33 4.02 7.66 2.04 8 0 C8.66 0 9.32 0 10 0 C10 3.63 10 7.26 10 11 C6 10 6 10 4.25 7.4375 C3.8375 6.633125 3.425 5.82875 3 5 C2.67 6.98 2.34 8.96 2 11 C1.34 11 0.68 11 0 11 C0 7.37 0 3.74 0 0 Z " fill="#292929" transform="translate(978,562)"/>
<path d="M0 0 C0.99 0 1.98 0 3 0 C3.50615298 1.26839526 4.00469099 2.53983102 4.5 3.8125 C4.7784375 4.52019531 5.056875 5.22789062 5.34375 5.95703125 C6 8 6 8 6 11 C5.34 11 4.68 11 4 11 C4 10.34 4 9.68 4 9 C2.35 9 0.7 9 -1 9 C-1 9.66 -1 10.32 -1 11 C-1.99 11 -2.98 11 -4 11 C-3.5247412 9.35303396 -3.04468109 7.70745272 -2.5625 6.0625 C-2.29566406 5.14597656 -2.02882813 4.22945312 -1.75390625 3.28515625 C-1 1 -1 1 0 0 Z " fill="#4F4F4F" transform="translate(1075,562)"/>
<path d="M0 0 C0.99 0 1.98 0 3 0 C3.50615298 1.26839526 4.00469099 2.53983102 4.5 3.8125 C4.7784375 4.52019531 5.056875 5.22789062 5.34375 5.95703125 C6 8 6 8 6 11 C5.34 11 4.68 11 4 11 C4 10.34 4 9.68 4 9 C2.35 9 0.7 9 -1 9 C-1 9.66 -1 10.32 -1 11 C-1.99 11 -2.98 11 -4 11 C-3.5247412 9.35303396 -3.04468109 7.70745272 -2.5625 6.0625 C-2.29566406 5.14597656 -2.02882813 4.22945312 -1.75390625 3.28515625 C-1 1 -1 1 0 0 Z " fill="#4F4F4F" transform="translate(944,562)"/>
<path d="M0 0 C1.32 0 2.64 0 4 0 C4.99 3.63 5.98 7.26 7 11 C4.69 10.34 2.38 9.68 0 9 C0 9.66 0 10.32 0 11 C-0.99 11 -1.98 11 -3 11 C-2.32829194 7.1936543 -1.27253436 3.64793184 0 0 Z " fill="#262626" transform="translate(1168,562)"/>
<path d="M0 0 C1.32 0 2.64 0 4 0 C4.99 3.63 5.98 7.26 7 11 C4.69 10.34 2.38 9.68 0 9 C0 9.66 0 10.32 0 11 C-0.99 11 -1.98 11 -3 11 C-2.32829194 7.1936543 -1.27253436 3.64793184 0 0 Z " fill="#262626" transform="translate(1020,562)"/>
<path d="M0 0 C1.32 0 2.64 0 4 0 C4.99 3.63 5.98 7.26 7 11 C4.69 10.34 2.38 9.68 0 9 C0 9.66 0 10.32 0 11 C-0.99 11 -1.98 11 -3 11 C-2.32829194 7.1936543 -1.27253436 3.64793184 0 0 Z " fill="#262626" transform="translate(898,562)"/>
<path d="M0 0 C2.875 -0.125 2.875 -0.125 6 0 C8 2 8 2 8 6 C6.35 6.33 4.7 6.66 3 7 C3 8.32 3 9.64 3 11 C2.01 11 1.02 11 0 11 C0 7.37 0 3.74 0 0 Z " fill="#6C6C6C" transform="translate(1042,562)"/>
<path d="M0 0 C1.65 0 3.3 0 5 0 C5.66 0.66 6.32 1.32 7 2 C6.835 2.78375 6.67 3.5675 6.5 4.375 C5.92129477 7.41320245 6.38788051 8.43957492 8 11 C7.01 11 6.02 11 5 11 C4.34 10.01 3.68 9.02 3 8 C2.67 8.99 2.34 9.98 2 11 C1.34 11 0.68 11 0 11 C0 7.37 0 3.74 0 0 Z " fill="#121212" transform="translate(1142,562)"/>
<path d="M0 0 C6.93 0 13.86 0 21 0 C21 0.66 21 1.32 21 2 C22.794375 1.87625 22.794375 1.87625 24.625 1.75 C29.24934637 1.7170865 31.44232818 3.15386254 35 6 C32 6 32 6 30.109375 5.0390625 C27.74088544 3.87236209 25.86934513 3.60611869 23.25 3.375 C22.45078125 3.30023438 21.6515625 3.22546875 20.828125 3.1484375 C20.22484375 3.09945313 19.6215625 3.05046875 19 3 C19 2.34 19 1.68 19 1 C12.565 1.495 12.565 1.495 6 2 C6.99 2.99 7.98 3.98 9 5 C5.28111761 4.49287967 2.26545761 3.88391785 -1 2 C-0.67 1.34 -0.34 0.68 0 0 Z " fill="#9BA2BB" transform="translate(813,496)"/>
<path d="M0 0 C0.66 0 1.32 0 2 0 C2.33 2.64 2.66 5.28 3 8 C3.99 8.33 4.98 8.66 6 9 C6 6.03 6 3.06 6 0 C6.99 0 7.98 0 9 0 C9.05399736 1.45792884 9.09279177 2.91642712 9.125 4.375 C9.14820313 5.18710937 9.17140625 5.99921875 9.1953125 6.8359375 C9 9 9 9 7 11 C4.5 11.25 4.5 11.25 2 11 C0 9 0 9 -0.1953125 6.8359375 C-0.17210937 6.02382813 -0.14890625 5.21171875 -0.125 4.375 C-0.10695313 3.55773437 -0.08890625 2.74046875 -0.0703125 1.8984375 C-0.04710937 1.27195312 -0.02390625 0.64546875 0 0 Z " fill="#262626" transform="translate(1052,562)"/>
<path d="M0 0 C0.99 0.33 1.98 0.66 3 1 C3 2.32 3 3.64 3 5 C2.01 5 1.02 5 0 5 C0 5.66 0 6.32 0 7 C0.99 7 1.98 7 3 7 C3 7.66 3 8.32 3 9 C1.68 9 0.36 9 -1 9 C-1 9.99 -1 10.98 -1 12 C0.32 12 1.64 12 3 12 C3 12.66 3 13.32 3 14 C1.02 14 -0.96 14 -3 14 C-3 10.37 -3 6.74 -3 3 C-2.34 3 -1.68 3 -1 3 C-0.67 2.01 -0.34 1.02 0 0 Z " fill="#242424" transform="translate(1136,559)"/>
<path d="M0 0 C0 1.32 0 2.64 0 4 C-0.66 4 -1.32 4 -2 4 C-2.268125 4.598125 -2.53625 5.19625 -2.8125 5.8125 C-4.00987475 8.01819033 -5.04478984 9.43583187 -7 11 C-7.99 11 -8.98 11 -10 11 C-10.33 11.66 -10.66 12.32 -11 13 C-11 12.34 -11 11.68 -11 11 C-11.66 10.67 -12.32 10.34 -13 10 C-12.45730469 9.52949219 -11.91460938 9.05898438 -11.35546875 8.57421875 C-10.64003906 7.95160156 -9.92460938 7.32898438 -9.1875 6.6875 C-8.47980469 6.07261719 -7.77210938 5.45773437 -7.04296875 4.82421875 C-5.01755954 3.06723259 -5.01755954 3.06723259 -3.36328125 1.26953125 C-2 0 -2 0 0 0 Z " fill="#C1C0C1" transform="translate(835,562)"/>
<path d="M0 0 C1.98 0 3.96 0 6 0 C6.33 1.65 6.66 3.3 7 5 C6.34 4.67 5.68 4.34 5 4 C5 3.34 5 2.68 5 2 C4.01 2 3.02 2 2 2 C2.185625 2.598125 2.37125 3.19625 2.5625 3.8125 C3 6 3 6 2 9 C3.32 9 4.64 9 6 9 C6 8.01 6 7.02 6 6 C6.66 6 7.32 6 8 6 C8 7.32 8 8.64 8 10 C5.29120665 11.35439668 2.99066732 11.06501451 0 11 C0 7.37 0 3.74 0 0 Z " fill="#141414" transform="translate(1123,562)"/>
<path d="M0 0 C5.28 0 10.56 0 16 0 C15.01 0.495 15.01 0.495 14 1 C14 1.66 14 2.32 14 3 C12.71349294 3.69710731 11.42059335 4.38242876 10.125 5.0625 C9.40570312 5.44535156 8.68640625 5.82820312 7.9453125 6.22265625 C7.30335938 6.47917969 6.66140625 6.73570312 6 7 C5.34 6.67 4.68 6.34 4 6 C4.66 4.68 5.32 3.36 6 2 C4.35 2 2.7 2 1 2 C0.67 1.34 0.34 0.68 0 0 Z " fill="#66729A" transform="translate(866,523)"/>
<path d="M0 0 C0.78890625 0.12761719 1.5778125 0.25523437 2.390625 0.38671875 C3.18984375 0.50660156 3.9890625 0.62648438 4.8125 0.75 C5.41578125 0.85699219 6.0190625 0.96398437 6.640625 1.07421875 C6.69509547 2.49045091 6.73363008 3.90730066 6.765625 5.32421875 C6.78882813 6.113125 6.81203125 6.90203125 6.8359375 7.71484375 C6.6234628 10.28153816 5.92716605 11.86582545 4.640625 14.07421875 C3.980625 14.07421875 3.320625 14.07421875 2.640625 14.07421875 C2.640625 12.75421875 2.640625 11.43421875 2.640625 10.07421875 C3.300625 10.07421875 3.960625 10.07421875 4.640625 10.07421875 C4.640625 7.76421875 4.640625 5.45421875 4.640625 3.07421875 C1.010625 3.07421875 -2.619375 3.07421875 -6.359375 3.07421875 C-2.359375 0.07421875 -2.359375 0.07421875 0 0 Z " fill="#B7B5B6" transform="translate(833.359375,546.92578125)"/>
<path d="M0 0 C0 0.66 0 1.32 0 2 C0.63808594 2.04898438 1.27617188 2.09796875 1.93359375 2.1484375 C2.75988281 2.22320313 3.58617187 2.29796875 4.4375 2.375 C5.26121094 2.44460938 6.08492187 2.51421875 6.93359375 2.5859375 C7.61550781 2.72257813 8.29742188 2.85921875 9 3 C9.33 3.66 9.66 4.32 10 5 C2.41 5 -5.18 5 -13 5 C-13 4.67 -13 4.34 -13 4 C-11.39125 3.566875 -11.39125 3.566875 -9.75 3.125 C-6.54214448 2.16264334 -3.3153523 0 0 0 Z " fill="#B6B4B5" transform="translate(824,573)"/>
<path d="M0 0 C1.67542976 0.28604898 3.34385343 0.61781233 5 1 C3.68 1.33 2.36 1.66 1 2 C1.680625 2.556875 2.36125 3.11375 3.0625 3.6875 C4.0215625 4.8321875 4.0215625 4.8321875 5 6 C4.75 8.75 4.75 8.75 4 11 C2.02 11 0.04 11 -2 11 C-2 10.34 -2 9.68 -2 9 C-0.68 9 0.64 9 2 9 C0.9790625 8.13375 0.9790625 8.13375 -0.0625 7.25 C-0.701875 6.5075 -1.34125 5.765 -2 5 C-1.80984746 2.78155374 -1.58477845 1.58477845 0 0 Z " fill="#262626" transform="translate(908,562)"/>
<path d="M0 0 C0.99 0 1.98 0 3 0 C3 3.63 3 7.26 3 11 C2.01 11 1.02 11 0 11 C0 10.34 0 9.68 0 9 C-1.32 9 -2.64 9 -4 9 C-4 8.01 -4 7.02 -4 6 C-2.68 6 -1.36 6 0 6 C0 5.34 0 4.68 0 4 C-0.99 4 -1.98 4 -3 4 C-3 3.34 -3 2.68 -3 2 C-2.01 2 -1.02 2 0 2 C0 1.34 0 0.68 0 0 Z " fill="#D3D3D3" transform="translate(1139,562)"/>
<path d="M0 0 C1.32 0 2.64 0 4 0 C4 3.3 4 6.6 4 10 C2.35 9.67 0.7 9.34 -1 9 C-1.09765625 2.84765625 -1.09765625 2.84765625 -1 1 C-0.67 0.67 -0.34 0.34 0 0 Z " fill="#5F5F5F" transform="translate(803,547)"/>
<path d="M0 0 C1.67542976 0.28604898 3.34385343 0.61781233 5 1 C3.68 1.33 2.36 1.66 1 2 C1.680625 2.556875 2.36125 3.11375 3.0625 3.6875 C4.0215625 4.8321875 4.0215625 4.8321875 5 6 C4.75 8.75 4.75 8.75 4 11 C2.02 11 0.04 11 -2 11 C-2 10.34 -2 9.68 -2 9 C-0.35 9 1.3 9 3 9 C3 8.34 3 7.68 3 7 C0.525 6.01 0.525 6.01 -2 5 C-1.125 1.125 -1.125 1.125 0 0 Z " fill="#2C2C2C" transform="translate(1107,562)"/>
<path d="M0 0 C2.97 0 5.94 0 9 0 C9 0.66 9 1.32 9 2 C8.01 2 7.02 2 6 2 C6 4.97 6 7.94 6 11 C5.01 11 4.02 11 3 11 C3 8.03 3 5.06 3 2 C2.01 2 1.02 2 0 2 C0 1.34 0 0.68 0 0 Z " fill="#393939" transform="translate(1062,562)"/>
<path d="M0 0 C0 0.66 0 1.32 0 2 C-1.32 2.33 -2.64 2.66 -4 3 C-4 4.65 -4 6.3 -4 8 C-2.68 8.33 -1.36 8.66 0 9 C0 9.66 0 10.32 0 11 C-2.31 10.67 -4.62 10.34 -7 10 C-8.33359073 3.57451737 -8.33359073 3.57451737 -6.875 1.0625 C-4.46420662 -0.30361625 -2.72705554 -0.22111261 0 0 Z " fill="#353535" transform="translate(959,562)"/>
<path d="M0 0 C0 0.66 0 1.32 0 2 C-1.32 2.33 -2.64 2.66 -4 3 C-4 4.65 -4 6.3 -4 8 C-2.68 8.33 -1.36 8.66 0 9 C0 9.66 0 10.32 0 11 C-2.31 10.67 -4.62 10.34 -7 10 C-8.33359073 3.57451737 -8.33359073 3.57451737 -6.875 1.0625 C-4.46420662 -0.30361625 -2.72705554 -0.22111261 0 0 Z " fill="#353535" transform="translate(934,562)"/>
<path d="M0 0 C2.97 0 5.94 0 9 0 C9 1.65 9 3.3 9 5 C6.36 5 3.72 5 1 5 C0.67 3.35 0.34 1.7 0 0 Z " fill="#656565" transform="translate(811,527)"/>
<path d="M0 0 C1.32 0.33 2.64 0.66 4 1 C4 1.66 4 2.32 4 3 C4.9075 3.28875 5.815 3.5775 6.75 3.875 C9.32202908 4.76531776 11.61346766 5.71494413 14 7 C14 7.99 14 8.98 14 10 C12.68 10 11.36 10 10 10 C10 9.34 10 8.68 10 8 C9.46375 7.938125 8.9275 7.87625 8.375 7.8125 C4.82973843 6.59964736 2.7407608 4.55389074 0 2 C0 1.34 0 0.68 0 0 Z " fill="#BBBABB" transform="translate(760,562)"/>
<path d="M0 0 C0.99 0.33 1.98 0.66 3 1 C2.34 1 1.68 1 1 1 C1 1.99 1 2.98 1 4 C-1.97 4.66 -4.94 5.32 -8 6 C-8 6.66 -8 7.32 -8 8 C-7.34 8.33 -6.68 8.66 -6 9 C-8.64 8.67 -11.28 8.34 -14 8 C-14 8.66 -14 9.32 -14 10 C-15.32 10 -16.64 10 -18 10 C-18 9.34 -18 8.68 -18 8 C-17.01 8 -16.02 8 -15 8 C-14.67 7.34 -14.34 6.68 -14 6 C-13.319375 5.87625 -12.63875 5.7525 -11.9375 5.625 C-7.89461119 4.76481089 -2.98964506 2.98964506 0 0 Z " fill="#A4A4AA" transform="translate(867,530)"/>
<path d="M0 0 C0.99 0 1.98 0 3 0 C3 4.62 3 9.24 3 14 C2.01 14 1.02 14 0 14 C0 9.38 0 4.76 0 0 Z " fill="#FCFCFC" transform="translate(806,523)"/>
<path d="M0 0 C1.98 0 3.96 0 6 0 C6 0.66 6 1.32 6 2 C4.68 2 3.36 2 2 2 C2 2.99 2 3.98 2 5 C2.99 5.33 3.98 5.66 5 6 C4.01 6 3.02 6 2 6 C2 6.99 2 7.98 2 9 C3.32 9 4.64 9 6 9 C6 9.66 6 10.32 6 11 C4.02 11 2.04 11 0 11 C0 7.37 0 3.74 0 0 Z " fill="#0C0C0C" transform="translate(1006,562)"/>
<path d="M0 0 C1.1446875 0.3403125 1.1446875 0.3403125 2.3125 0.6875 C2.3125 1.0175 2.3125 1.3475 2.3125 1.6875 C0.6625 1.6875 -0.9875 1.6875 -2.6875 1.6875 C-2.6875 3.6675 -2.6875 5.6475 -2.6875 7.6875 C-1.0375 8.0175 0.6125 8.3475 2.3125 8.6875 C2.3125 9.3475 2.3125 10.0075 2.3125 10.6875 C-0.5625 10.8125 -0.5625 10.8125 -3.6875 10.6875 C-5.6875 8.6875 -5.6875 8.6875 -6 5.75 C-5.6875 2.6875 -5.6875 2.6875 -4.5 0.75 C-2.6875 -0.3125 -2.6875 -0.3125 0 0 Z " fill="#1B1B1B" transform="translate(1161.6875,562.3125)"/>
<path d="M0 0 C0.33 0.66 0.66 1.32 1 2 C0.21625 2.763125 -0.5675 3.52625 -1.375 4.3125 C-4.07257717 6.90891805 -4.07257717 6.90891805 -6 10 C-6.66 10 -7.32 10 -8 10 C-8.12375 10.598125 -8.2475 11.19625 -8.375 11.8125 C-9 14 -9 14 -11 17 C-11.43956044 11.63736264 -11.43956044 11.63736264 -11 9 C-8.5625 7.1875 -8.5625 7.1875 -6 6 C-5.67 5.01 -5.34 4.02 -5 3 C-2.4375 1.3125 -2.4375 1.3125 0 0 Z " fill="#A5ABBF" transform="translate(794,504)"/>
<path d="M0 0 C3.96 0 7.92 0 12 0 C12 0.66 12 1.32 12 2 C11.01 2.495 11.01 2.495 10 3 C10 3.66 10 4.32 10 5 C10.99 5.33 11.98 5.66 13 6 C9.87709365 5.51421457 7.00419641 5.0013988 4 4 C4 3.01 4 2.02 4 1 C2.68 0.67 1.36 0.34 0 0 Z " fill="#69759B" transform="translate(826,523)"/>
<path d="M0 0 C1.32 0 2.64 0 4 0 C4.33 1.98 4.66 3.96 5 6 C3.35 6.33 1.7 6.66 0 7 C-1.125 2.25 -1.125 2.25 0 0 Z " fill="#DCDCDC" transform="translate(969,564)"/>
<path d="M0 0 C1.32 0 2.64 0 4 0 C4.33 1.98 4.66 3.96 5 6 C4.34 6 3.68 6 3 6 C2.67 7.65 2.34 9.3 2 11 C1.34 11 0.68 11 0 11 C0 7.37 0 3.74 0 0 Z " fill="#303030" transform="translate(1028,562)"/>
<path d="M0 0 C0.33 0 0.66 0 1 0 C1 5.61 1 11.22 1 17 C3.64 17.33 6.28 17.66 9 18 C8.67 18.66 8.34 19.32 8 20 C5.125 20.125 5.125 20.125 2 20 C0 18 0 18 -0.22705078 16.12060547 C-0.21657715 15.37697754 -0.20610352 14.63334961 -0.1953125 13.8671875 C-0.18886719 13.06152344 -0.18242188 12.25585938 -0.17578125 11.42578125 C-0.15064453 10.16314453 -0.15064453 10.16314453 -0.125 8.875 C-0.11597656 8.02550781 -0.10695313 7.17601562 -0.09765625 6.30078125 C-0.07405647 4.20040116 -0.03818483 2.10016556 0 0 Z " fill="#E5E5E5" transform="translate(809,549)"/>
<path d="M0 0 C0.99 0 1.98 0 3 0 C3 3.63 3 7.26 3 11 C2.01 11 1.02 11 0 11 C0 7.37 0 3.74 0 0 Z " fill="#414141" transform="translate(961,562)"/>
<path d="M0 0 C0.99 0 1.98 0 3 0 C3 3.63 3 7.26 3 11 C2.01 11 1.02 11 0 11 C0 7.37 0 3.74 0 0 Z " fill="#414141" transform="translate(936,562)"/>
<path d="M0 0 C2.64 0 5.28 0 8 0 C8 0.99 8 1.98 8 3 C6.1746875 3.2165625 6.1746875 3.2165625 4.3125 3.4375 C1.17329623 3.82780953 -1.9075134 4.32351856 -5 5 C-3.625 3.5 -3.625 3.5 -2 2 C-1.34 2 -0.68 2 0 2 C0 1.34 0 0.68 0 0 Z " fill="#C1C3C8" transform="translate(805,496)"/>
<path d="M0 0 C1.65 0.33 3.3 0.66 5 1 C4.67 2.65 4.34 4.3 4 6 C2.35 5.67 0.7 5.34 -1 5 C-0.67 3.35 -0.34 1.7 0 0 Z " fill="#474747" transform="translate(812,561)"/>
<path d="M0 0 C3.72433382 1.2125738 7.37802806 2.50859979 11 4 C11 4.66 11 5.32 11 6 C12.32 6.66 13.64 7.32 15 8 C13.68 8.33 12.36 8.66 11 9 C11 8.34 11 7.68 11 7 C10.34 7 9.68 7 9 7 C9 6.34 9 5.68 9 5 C7.68 5 6.36 5 5 5 C5 4.34 5 3.68 5 3 C3.35 3 1.7 3 0 3 C0 2.01 0 1.02 0 0 Z " fill="#5E6C9A" transform="translate(839,499)"/>
<path d="M0 0 C2.0625 0.4375 2.0625 0.4375 4 1 C4 2.65 4 4.3 4 6 C2.0625 6.5625 2.0625 6.5625 0 7 C-1 6 -1 6 -1.125 3.5 C-1 1 -1 1 0 0 Z " fill="#F6F6F6" transform="translate(1097,564)"/>
<path d="M0 0 C2.0625 0.4375 2.0625 0.4375 4 1 C4 2.65 4 4.3 4 6 C2.0625 6.5625 2.0625 6.5625 0 7 C-1 6 -1 6 -1.125 3.5 C-1 1 -1 1 0 0 Z " fill="#F6F6F6" transform="translate(918,564)"/>
<path d="M0 0 C0.99 0.33 1.98 0.66 3 1 C2.67 1.66 2.34 2.32 2 3 C2.99 3.66 3.98 4.32 5 5 C5 5.66 5 6.32 5 7 C4.01 7 3.02 7 2 7 C2 6.34 2 5.68 2 5 C0.68 5 -0.64 5 -2 5 C-2.33 5.66 -2.66 6.32 -3 7 C-3.66 7 -4.32 7 -5 7 C-4.34 5.68 -3.68 4.36 -3 3 C-2.34 3 -1.68 3 -1 3 C-0.67 2.01 -0.34 1.02 0 0 Z " fill="#313131" transform="translate(971,559)"/>
<path d="M0 0 C0.66 0 1.32 0 2 0 C2 3.63 2 7.26 2 11 C0.68 10.67 -0.64 10.34 -2 10 C-1.34 6.7 -0.68 3.4 0 0 Z " fill="#101010" transform="translate(986,562)"/>
<path d="M0 0 C1.65 0 3.3 0 5 0 C5.66 1.32 6.32 2.64 7 4 C5.02 4.33 3.04 4.66 1 5 C0.67 3.35 0.34 1.7 0 0 Z " fill="#4F4F4F" transform="translate(1142,562)"/>
<path d="M0 0 C1.2065625 0.0309375 1.2065625 0.0309375 2.4375 0.0625 C1.4475 0.7225 0.4575 1.3825 -0.5625 2.0625 C-0.92612818 4.26975073 -0.92612818 4.26975073 -0.75 6.6875 C-0.72292969 7.50476563 -0.69585938 8.32203125 -0.66796875 9.1640625 C-0.63316406 9.79054688 -0.59835937 10.41703125 -0.5625 11.0625 C-1.5525 11.0625 -2.5425 11.0625 -3.5625 11.0625 C-3.58938151 9.41675434 -3.60884123 7.77088587 -3.625 6.125 C-3.63660156 5.20847656 -3.64820313 4.29195312 -3.66015625 3.34765625 C-3.52086326 0.08820018 -3.27895972 0.07997463 0 0 Z " fill="#BCBCBC" transform="translate(803.5625,545.9375)"/>
<path d="M0 0 C0.33 0.66 0.66 1.32 1 2 C2.32 2 3.64 2 5 2 C5 1.34 5 0.68 5 0 C5.66 0 6.32 0 7 0 C7 0.99 7 1.98 7 3 C5.35 3.33 3.7 3.66 2 4 C2 5.32 2 6.64 2 8 C1.34 8 0.68 8 0 8 C0 5.36 0 2.72 0 0 Z " fill="#0E0E0E" transform="translate(1043,565)"/>
<path d="M0 0 C1.98 0.66 3.96 1.32 6 2 C6.33 3.65 6.66 5.3 7 7 C5.0625 6.6875 5.0625 6.6875 3 6 C2.67 5.01 2.34 4.02 2 3 C1.34 3 0.68 3 0 3 C0 2.01 0 1.02 0 0 Z " fill="#BEBCBE" transform="translate(787,565)"/>
<path d="M0 0 C1.32 0.33 2.64 0.66 4 1 C4 2.65 4 4.3 4 6 C2.68 6.33 1.36 6.66 0 7 C0 4.69 0 2.38 0 0 Z " fill="#EFEFEF" transform="translate(1085,564)"/>
<path d="M0 0 C1.32 0.33 2.64 0.66 4 1 C4 2.65 4 4.3 4 6 C2.68 6.33 1.36 6.66 0 7 C0 4.69 0 2.38 0 0 Z " fill="#EFEFEF" transform="translate(997,564)"/>
<path d="M0 0 C0.66 0.33 1.32 0.66 2 1 C1.01 1.33 0.02 1.66 -1 2 C-1.12375 2.5775 -1.2475 3.155 -1.375 3.75 C-2.29697411 7.06910681 -4.51797119 8.70889648 -7 11 C-7.66 10.67 -8.32 10.34 -9 10 C-7.71937515 8.2925002 -6.38232443 6.62626404 -5 5 C-4.34 5 -3.68 5 -3 5 C-2.814375 4.0409375 -2.814375 4.0409375 -2.625 3.0625 C-2.41875 2.381875 -2.2125 1.70125 -2 1 C-1.34 0.67 -0.68 0.34 0 0 Z " fill="#E0E1E6" transform="translate(798,501)"/>
<path d="M0 0 C0.99 0 1.98 0 3 0 C3.33 2.31 3.66 4.62 4 7 C2.68 7 1.36 7 0 7 C0 4.69 0 2.38 0 0 Z " fill="#939393" transform="translate(1125,564)"/>
<path d="M0 0 C0.66 0.33 1.32 0.66 2 1 C2 1.66 2 2.32 2 3 C3.65 3.33 5.3 3.66 7 4 C3.87819599 4.96661363 1.47916205 4.98988909 -1.75 4.5625 C-2.94882812 4.40974609 -2.94882812 4.40974609 -4.171875 4.25390625 C-4.77515625 4.17011719 -5.3784375 4.08632813 -6 4 C-6 3.34 -6 2.68 -6 2 C-4.02 2 -2.04 2 0 2 C0 1.34 0 0.68 0 0 Z " fill="#EEEEEE" transform="translate(811,542)"/>
<path d="M0 0 C1.58272601 3.16545202 0.33086619 5.74418878 -0.4375 9.125 C-0.72496094 10.40632812 -1.01242187 11.68765625 -1.30859375 13.0078125 C-1.53675781 13.99523437 -1.76492188 14.98265625 -2 16 C-2.33 16 -2.66 16 -3 16 C-3.37952295 9.80112515 -2.8352113 5.5522888 0 0 Z " fill="#AFB4C5" transform="translate(782,521)"/>
<path d="M0 0 C0 0.66 0 1.32 0 2 C3.3 2 6.6 2 10 2 C10 2.33 10 2.66 10 3 C3.73 3 -2.54 3 -9 3 C-9 2.67 -9 2.34 -9 2 C-2.25 0 -2.25 0 0 0 Z " fill="#A09E9F" transform="translate(820,575)"/>
<path d="M0 0 C1.98 0 3.96 0 6 0 C6 1.32 6 2.64 6 4 C4.02 4 2.04 4 0 4 C0 2.68 0 1.36 0 0 Z " fill="#E6E6E6" transform="translate(797,529)"/>
<path d="M0 0 C0 0.66 0 1.32 0 2 C1.98 2 3.96 2 6 2 C6 4.31 6 6.62 6 9 C5.67 9 5.34 9 5 9 C5 7.02 5 5.04 5 3 C1.37 3 -2.26 3 -6 3 C-2 0 -2 0 0 0 Z " fill="#A3A1A2" transform="translate(833,547)"/>
<path d="M0 0 C0.99 0.33 1.98 0.66 3 1 C2.67 2.65 2.34 4.3 2 6 C0.02 6 -1.96 6 -4 6 C-4 5.34 -4 4.68 -4 4 C-2.35 4 -0.7 4 1 4 C0.67 2.68 0.34 1.36 0 0 Z " fill="#1A1A1A" transform="translate(1109,567)"/>
<path d="M0 0 C0.33 0.66 0.66 1.32 1 2 C2.97888961 2.72693904 4.97954558 3.39816251 7 4 C7 4.66 7 5.32 7 6 C4.69 5.67 2.38 5.34 0 5 C0 3.35 0 1.7 0 0 Z " fill="#D5D5D5" transform="translate(1103,565)"/>
<path d="M0 0 C1.32 0 2.64 0 4 0 C5.125 4.75 5.125 4.75 4 7 C3.01 7 2.02 7 1 7 C1.020625 6.21625 1.04125 5.4325 1.0625 4.625 C1.18684063 2.01885039 1.18684063 2.01885039 0 0 Z " fill="#626262" transform="translate(1168,562)"/>
<path d="M0 0 C1.32 0 2.64 0 4 0 C5.125 4.75 5.125 4.75 4 7 C3.01 7 2.02 7 1 7 C1.020625 6.21625 1.04125 5.4325 1.0625 4.625 C1.18684063 2.01885039 1.18684063 2.01885039 0 0 Z " fill="#626262" transform="translate(1020,562)"/>
<path d="M0 0 C1.32 0 2.64 0 4 0 C5.125 4.75 5.125 4.75 4 7 C3.01 7 2.02 7 1 7 C1.020625 6.21625 1.04125 5.4325 1.0625 4.625 C1.18684063 2.01885039 1.18684063 2.01885039 0 0 Z " fill="#626262" transform="translate(898,562)"/>
<path d="M0 0 C3 2 3 2 4 5 C4.99 5.33 5.98 5.66 7 6 C7 6.66 7 7.32 7 8 C2.25 7.25 2.25 7.25 0 5 C-0.125 2.375 -0.125 2.375 0 0 Z " fill="#2C2C2C" transform="translate(1093,565)"/>
<path d="M0 0 C3 2 3 2 4 5 C4.99 5.33 5.98 5.66 7 6 C7 6.66 7 7.32 7 8 C2.25 7.25 2.25 7.25 0 5 C-0.125 2.375 -0.125 2.375 0 0 Z " fill="#2C2C2C" transform="translate(914,565)"/>
<path d="M0 0 C2.97 0 5.94 0 9 0 C9 0.33 9 0.66 9 1 C6.36 1 3.72 1 1 1 C0.67 2.65 0.34 4.3 0 6 C-0.66 6 -1.32 6 -2 6 C-2 4.68 -2 3.36 -2 2 C-1.34 2 -0.68 2 0 2 C0 1.34 0 0.68 0 0 Z " fill="#B9B7B8" transform="translate(865,548)"/>
<path d="M0 0 C1.44010481 0.25662245 2.8770687 0.53090821 4.3125 0.8125 C5.11300781 0.96332031 5.91351562 1.11414063 6.73828125 1.26953125 C9.23445587 2.07572236 10.32422106 3.02052002 12 5 C10.35 5 8.7 5 7 5 C7 4.34 7 3.68 7 3 C5.35 3 3.7 3 2 3 C2 2.34 2 1.68 2 1 C1.34 0.67 0.68 0.34 0 0 Z " fill="#CED0D9" transform="translate(830,527)"/>
<path d="M0 0 C2.31 0 4.62 0 7 0 C7 0.99 7 1.98 7 3 C4.69 3 2.38 3 0 3 C0 2.01 0 1.02 0 0 Z " fill="#1E1E1E" transform="translate(812,528)"/>
<path d="M0 0 C0.4125 0.639375 0.825 1.27875 1.25 1.9375 C3.17810487 4.20990931 4.11424181 4.60196439 7 5 C7 5.66 7 6.32 7 7 C4.69 6.67 2.38 6.34 0 6 C0 4.02 0 2.04 0 0 Z " fill="#151515" transform="translate(952,566)"/>
<path d="M0 0 C0.4125 0.639375 0.825 1.27875 1.25 1.9375 C3.17810487 4.20990931 4.11424181 4.60196439 7 5 C7 5.66 7 6.32 7 7 C4.69 6.67 2.38 6.34 0 6 C0 4.02 0 2.04 0 0 Z " fill="#151515" transform="translate(927,566)"/>
<path d="M0 0 C2.31 0.33 4.62 0.66 7 1 C6.34 1.66 5.68 2.32 5 3 C4.01 2.67 3.02 2.34 2 2 C2 4.31 2 6.62 2 9 C1.67 9 1.34 9 1 9 C0.67 6.03 0.34 3.06 0 0 Z " fill="#1F1F1F" transform="translate(1083,562)"/>
<path d="M0 0 C2.31 0.33 4.62 0.66 7 1 C6.34 1.66 5.68 2.32 5 3 C4.01 2.67 3.02 2.34 2 2 C2 4.31 2 6.62 2 9 C1.67 9 1.34 9 1 9 C0.67 6.03 0.34 3.06 0 0 Z " fill="#1F1F1F" transform="translate(995,562)"/>
<path d="M0 0 C2.64 0 5.28 0 8 0 C8 0.66 8 1.32 8 2 C6.02 2 4.04 2 2 2 C2 2.66 2 3.32 2 4 C1.34 4 0.68 4 0 4 C0 2.68 0 1.36 0 0 Z " fill="#DFDFDF" transform="translate(803,542)"/>
<path d="M0 0 C0.33 0 0.66 0 1 0 C1.042721 1.66611905 1.04063832 3.33382885 1 5 C0.67 5.33 0.34 5.66 0 6 C-0.23192865 7.51469448 -0.41215238 9.03754562 -0.5625 10.5625 C-0.64628906 11.38878906 -0.73007812 12.21507812 -0.81640625 13.06640625 C-0.87699219 13.70449219 -0.93757812 14.34257813 -1 15 C-1.33 15 -1.66 15 -2 15 C-2.05429959 13.25034642 -2.09292823 11.50020213 -2.125 9.75 C-2.15980469 8.28820312 -2.15980469 8.28820312 -2.1953125 6.796875 C-1.99862781 3.9803502 -1.44568916 2.39050964 0 0 Z " fill="#4C5D93" transform="translate(780,522)"/>
<path d="M0 0 C3.87132028 0.57352893 6.08172796 2.48704352 9 5 C5.28111761 4.49287967 2.26545761 3.88391785 -1 2 C-0.67 1.34 -0.34 0.68 0 0 Z " fill="#878EA7" transform="translate(813,496)"/>
<path d="M0 0 C0.99 0 1.98 0 3 0 C3 0.66 3 1.32 3 2 C4.65 2 6.3 2 8 2 C8 2.33 8 2.66 8 3 C3.71 3 -0.58 3 -5 3 C-5 2.67 -5 2.34 -5 2 C-3.35 2 -1.7 2 0 2 C0 1.34 0 0.68 0 0 Z " fill="#9F9D9E" transform="translate(798,575)"/>
<path d="M0 0 C0.5625 1.9375 0.5625 1.9375 1 4 C0 5 0 5 -3.0625 5.0625 C-4.5165625 5.0315625 -4.5165625 5.0315625 -6 5 C-6 4.34 -6 3.68 -6 3 C-4.68 3 -3.36 3 -2 3 C-1.67 2.34 -1.34 1.68 -1 1 C-0.67 0.67 -0.34 0.34 0 0 Z " fill="#2E2E2E" transform="translate(912,568)"/>
<path d="M0 0 C0.66 0.33 1.32 0.66 2 1 C0.515 4.96 0.515 4.96 -1 9 C-1.33 9 -1.66 9 -2 9 C-2 6.36 -2 3.72 -2 1 C-1.34 0.67 -0.68 0.34 0 0 Z " fill="#7A85A8" transform="translate(785,512)"/>
<path d="M0 0 C-1.24176695 0.70226141 -2.49385599 1.38629109 -3.75 2.0625 C-4.79414062 2.63677734 -4.79414062 2.63677734 -5.859375 3.22265625 C-8.36140628 4.1312406 -9.5332355 3.88336837 -12 3 C-11.34 3 -10.68 3 -10 3 C-10 2.34 -10 1.68 -10 1 C-6.16112237 -0.48320272 -3.93795909 -1.22419163 0 0 Z " fill="#B5BAC9" transform="translate(780,499)"/>
<path d="M0 0 C0.66 0 1.32 0 2 0 C2 1.65 2 3.3 2 5 C0.02 5.99 0.02 5.99 -2 7 C-2.66 6.34 -3.32 5.68 -4 5 C-3.01 4.67 -2.02 4.34 -1 4 C-0.26676204 1.98491642 -0.26676204 1.98491642 0 0 Z " fill="#141414" transform="translate(974,566)"/>
<path d="M0 0 C3 2 3 2 3.6875 5.125 C3.790625 6.07375 3.89375 7.0225 4 8 C3.34 8 2.68 8 2 8 C0.375 6 0.375 6 -1 4 C-0.34 4 0.32 4 1 4 C0.67 2.68 0.34 1.36 0 0 Z " fill="#161616" transform="translate(1077,565)"/>
<path d="M0 0 C1.98 0.66 3.96 1.32 6 2 C4.68 2.33 3.36 2.66 2 3 C2 3.66 2 4.32 2 5 C1.01 5 0.02 5 -1 5 C-0.67 3.35 -0.34 1.7 0 0 Z " fill="#3A3A3A" transform="translate(1072,568)"/>
<path d="M0 0 C3 2 3 2 3.6875 5.125 C3.790625 6.07375 3.89375 7.0225 4 8 C3.34 8 2.68 8 2 8 C0.375 6 0.375 6 -1 4 C-0.34 4 0.32 4 1 4 C0.67 2.68 0.34 1.36 0 0 Z " fill="#161616" transform="translate(946,565)"/>
<path d="M0 0 C1.98 0.66 3.96 1.32 6 2 C4.68 2.33 3.36 2.66 2 3 C2 3.66 2 4.32 2 5 C1.01 5 0.02 5 -1 5 C-0.67 3.35 -0.34 1.7 0 0 Z " fill="#3A3A3A" transform="translate(941,568)"/>
<path d="M0 0 C0.66 0 1.32 0 2 0 C2.1875 3.375 2.1875 3.375 2 7 C1.01 7.66 0.02 8.32 -1 9 C-0.67 6.03 -0.34 3.06 0 0 Z " fill="#0E0E0E" transform="translate(1101,564)"/>
<path d="M0 0 C0.66 0 1.32 0 2 0 C2.1875 3.375 2.1875 3.375 2 7 C1.01 7.66 0.02 8.32 -1 9 C-0.67 6.03 -0.34 3.06 0 0 Z " fill="#0E0E0E" transform="translate(922,564)"/>
<path d="M0 0 C1.98 0 3.96 0 6 0 C6 0.66 6 1.32 6 2 C4.68 2 3.36 2 2 2 C2 2.99 2 3.98 2 5 C1.34 5 0.68 5 0 5 C0 3.35 0 1.7 0 0 Z " fill="#1D1D1D" transform="translate(1006,562)"/>
<path d="M0 0 C-0.66 0 -1.32 0 -2 0 C-2 0.99 -2 1.98 -2 3 C-4.64 3.66 -7.28 4.32 -10 5 C-7.30888151 0.96332227 -4.89232235 -1.63077412 0 0 Z " fill="#ADB2C3" transform="translate(870,531)"/>
<path d="M0 0 C0.33 0 0.66 0 1 0 C1 1.65 1 3.3 1 5 C0.34 5 -0.32 5 -1 5 C-1.66 6.65 -2.32 8.3 -3 10 C-3.33 8.68 -3.66 7.36 -4 6 C-3.34 6 -2.68 6 -2 6 C-1.7834375 5.071875 -1.7834375 5.071875 -1.5625 4.125 C-1 2 -1 2 0 0 Z " fill="#7D88A9" transform="translate(757,512)"/>
<path d="M0 0 C1.98 0 3.96 0 6 0 C0.85714286 4.42857143 0.85714286 4.42857143 -3 5 C-3 4.34 -3 3.68 -3 3 C-2.01 3 -1.02 3 0 3 C0 2.01 0 1.02 0 0 Z " fill="#515F8B" transform="translate(799,497)"/>
<path d="M0 0 C1.65 0 3.3 0 5 0 C5 1.65 5 3.3 5 5 C2.5 3.625 2.5 3.625 0 2 C0 1.34 0 0.68 0 0 Z " fill="#F3F3F3" transform="translate(909,564)"/>
<path d="M0 0 C0.33 0.66 0.66 1.32 1 2 C0.34 2 -0.32 2 -1 2 C-1.33 3.32 -1.66 4.64 -2 6 C-3.32 5.67 -4.64 5.34 -6 5 C-4.02 3.35 -2.04 1.7 0 0 Z " fill="#62709C" transform="translate(764,506)"/>
</svg>
